HIERARCHY
ROOT Hips
{
   OFFSET 0.00000 0.00000 0.00000
   CHANNELS 6 Xposition Yposition Zposition Zrotation Xrotation Yrotation
   JOINT RightUpLeg
   {
      OFFSET -8.945800 -8.667070 0.101652
      CHANNELS 3 Zrotation Xrotation Yrotation
      JOINT RightLeg
      {
         OFFSET 0.000000 -44.422697 1.372700
         CHANNELS 3 Zrotation Xrotation Yrotation
         JOINT RightFoot
         {
            OFFSET 0.253549 -42.092399 -1.460590
            CHANNELS 3 Zrotation Xrotation Yrotation
            JOINT RightToes
            {
               OFFSET 0.040000 -4.415090 8.499099
               CHANNELS 3 Zrotation Xrotation Yrotation
               End Site
               {
                  OFFSET -0.080000 -0.137448 9.779790
               }
            }
         }
      }
   }
   JOINT Spine
   {
      OFFSET 0.000000 11.890501 0.000000
      CHANNELS 3 Zrotation Xrotation Yrotation
      JOINT Spine1
      {
         OFFSET 0.000000 25.657401 0.127663
         CHANNELS 3 Zrotation Xrotation Yrotation
         JOINT HEad
         {
            OFFSET 0.000000 8.734161 0.011341
            CHANNELS 3 Zrotation Xrotation Yrotation
            End Site
            {
               OFFSET -0.290000 12.774200 2.513950
            }
         }
         JOINT LeftShoulder1
         {
            OFFSET 8.990000 -0.362252 -0.220000
            CHANNELS 3 Zrotation Xrotation Yrotation
            JOINT LeftArm
            {
               OFFSET 10.282700 -0.003380 0.322123
               CHANNELS 3 Zrotation Xrotation Yrotation
               JOINT LeftForeArm
               {
                  OFFSET 32.766900 0.099144 -1.424340
                  CHANNELS 3 Zrotation Xrotation Yrotation
                  JOINT LeftHand
                  {
                     OFFSET 27.564301 0.085362 1.022160
                     CHANNELS 3 Zrotation Xrotation Yrotation
                     End Site
                     {
                        OFFSET 16.744301 -0.600000 1.502910
                     }
                  }
               }
            }
         }
         JOINT RightShoulder
         {
            OFFSET -8.990000 -0.362252 -0.220000
            CHANNELS 3 Zrotation Xrotation Yrotation
            JOINT RightArm
            {
               OFFSET -10.282700 -0.003380 0.322123
               CHANNELS 3 Zrotation Xrotation Yrotation
               JOINT RightForeArm
               {
                  OFFSET -32.897098 0.099144 -1.424340
                  CHANNELS 3 Zrotation Xrotation Yrotation
                  JOINT RightHand
                  {
                     OFFSET -27.492101 0.085362 1.022160
                     CHANNELS 3 Zrotation Xrotation Yrotation
                     End Site
                     {
                        OFFSET -16.631201 -0.600000 1.502910
                     }
                  }
               }
            }
         }
      }
   }
   JOINT LeftUpLeg
   {
      OFFSET 8.945800 -8.667070 0.101652
      CHANNELS 3 Zrotation Xrotation Yrotation
      JOINT LeftLeg
      {
         OFFSET 0.000000 -44.422697 1.372700
         CHANNELS 3 Zrotation Xrotation Yrotation
         JOINT LeftFoot
         {
            OFFSET -0.253549 -42.092399 -1.460590
            CHANNELS 3 Zrotation Xrotation Yrotation
            JOINT LeftToes
            {
               OFFSET -0.040000 -4.415090 8.499099
               CHANNELS 3 Zrotation Xrotation Yrotation
               End Site
               {
                  OFFSET 0.080000 -0.047448 9.779790
               }
            }
         }
      }
   }
}
MOTION
Frames: 15
Frame Time: 0.016667
-875.651385 97.820576 450.158723 -60.337263 52.311749 -67.917536 -11.647310 -20.767002 -56.273925 -181.924493 122.436141 -60.849315 31.764997 40.942374 31.280183 17.936823 -13.120178 -27.792016 53.789102 23.996710 103.014436 22.971391 -6.647657 -108.190920 43.560419 21.657299 -47.646754 -78.736966 -30.951030 -38.504232 -21.656484 44.075340 -45.864362 28.107132 27.198764 -67.374721 -45.017831 -64.227595 -82.108190 66.248730 83.114817 -30.847941 142.022787 -28.292710 193.215806 2.784118 -1.672153 44.639627 19.102709 3.264123 39.001890 63.445579 25.456446 -153.261017 -10.696320 -37.975080 154.900153 -34.971552 12.458084 40.871084 -15.151397 -15.146873 -28.878402
-873.671252 98.219403 450.983804 -56.372375 51.400472 -69.466685 -7.267508 -20.080181 -40.480274 -163.631060 124.269746 279.696684 34.100239 40.798745 28.344827 17.577625 -15.248834 -30.878869 51.950617 21.173511 104.749243 26.016916 -8.263632 -110.112130 43.895280 19.868418 -47.634064 -74.422486 -30.192411 -34.988733 -24.672289 36.430023 -47.569508 23.794506 32.578411 -69.484798 -45.484197 -62.885716 -82.606309 67.062964 90.145287 -30.766061 144.581062 -19.064699 198.050610 4.155109 2.917572 41.760405 17.769449 2.982451 40.979472 57.664036 21.018177 -150.098270 -11.102964 -37.134693 161.099546 -32.746352 13.021111 42.581124 -15.202961 -17.236980 -26.972125
-871.598269 98.493880 451.824487 -52.694500 50.416734 -70.788887 -6.047782 -20.139578 -27.850773 -147.832942 127.642903 263.586672 34.442366 41.858702 24.291843 17.663037 -16.734414 -34.537449 48.248525 19.823774 106.929678 26.585564 -10.978905 -111.303158 42.826922 17.621231 -46.884413 -71.023544 -28.921992 -32.490452 -28.956218 27.981938 -50.603765 19.588913 37.723025 -71.380388 -46.020015 -61.477228 -82.813838 67.341075 95.245636 -28.846003 146.556175 -9.532269 203.766290 4.365798 7.661656 40.531989 18.195054 3.748164 43.027675 53.643322 17.323694 -149.008404 -11.158464 -36.405004 164.792001 -30.759911 13.936769 42.461135 -14.446255 -18.514917 -26.616388
-869.428011 98.569878 452.760346 -48.597920 46.196124 -72.221819 -9.676357 -21.263979 -20.794349 -134.467232 128.810469 250.844954 30.781637 45.377175 17.143683 18.434505 -17.400552 -39.363729 42.488500 21.614526 108.017072 27.198425 -11.318374 -113.803820 41.250292 15.544233 -45.501552 -66.287416 -26.471085 -30.277679 -33.240714 18.381166 -53.455567 16.170946 43.238133 -72.428883 -46.824481 -59.512552 -81.929048 66.360943 102.160096 -25.551137 146.152497 -0.318997 208.932085 6.411081 14.527374 40.233209 18.500908 4.666010 45.569055 48.087957 14.538198 -148.809482 -9.957086 -35.827904 166.340064 -28.870510 15.544993 41.297998 -13.050448 -18.605679 -27.192966
-867.179629 98.605870 453.692506 -47.223204 39.422411 -74.952064 -17.867006 -27.254634 -28.219230 -112.865393 109.762561 237.423168 20.231679 51.199037 2.359915 21.532527 -16.482056 -48.985697 36.670370 25.983541 110.146178 24.920999 -10.712371 -116.001105 39.718291 14.117941 -43.922180 -61.065484 -21.912427 -29.492006 -37.852697 8.858130 -56.472615 13.745207 49.247710 -72.288072 -48.070991 -57.226047 -79.128022 62.909608 108.739057 -20.771860 140.758847 9.765829 215.866968 9.723180 20.887273 41.227978 18.477415 4.660971 47.716548 40.694137 15.902405 -147.842996 -8.819345 -35.959529 167.195244 -28.049184 17.344222 39.978125 -11.995039 -18.317471 -26.603795
-864.714343 98.827151 454.740746 -46.338647 36.770443 -80.501409 -8.122695 -30.608905 -50.103153 -57.507406 63.624947 217.641382 16.768108 46.053807 -4.741600 21.828805 -17.744828 -53.404272 32.355074 34.723650 113.814686 22.389312 -10.862551 -116.217704 38.081634 13.858262 -42.173280 -56.151224 -17.355407 -30.888810 -43.934700 -0.833732 -61.123622 12.174590 53.472820 -68.238712 -48.646769 -54.844715 -74.938001 58.639981 119.393168 -16.295950 133.905640 20.640376 225.116765 12.743091 29.956400 41.784758 19.679226 6.483691 48.053714 33.461834 16.276329 -145.600017 -9.009890 -35.860682 169.999105 -27.299735 18.640834 41.180013 -12.014174 -18.356092 -23.112453
-862.025439 99.027050 455.875543 -41.922243 38.770937 -84.646521 -2.004494 -25.734032 -52.421077 -34.417661 51.250867 196.058736 19.725221 39.535806 -3.512226 20.369835 -18.889581 -52.261162 32.357154 38.313301 115.753716 19.696184 -10.752436 -117.966670 37.357108 13.548043 -40.528464 -50.913770 -11.653740 -30.564595 -50.808295 -8.789119 -66.839056 9.319434 57.654201 -66.680214 -49.600878 -52.490588 -70.811358 53.433089 124.900760 -12.553773 126.103255 30.536673 231.715315 14.797673 38.030077 39.815922 19.864415 7.249021 46.835242 31.321581 12.045436 -143.896745 -9.430605 -33.524611 172.446758 -26.047773 19.239692 42.488787 -11.948309 -17.918882 -19.652071
-859.295184 99.161385 457.064507 -37.435058 36.157321 -87.693181 -1.487053 -24.227301 -47.573763 -23.892765 47.062097 172.198891 19.500964 39.764740 -5.082137 20.486140 -17.844370 -51.370761 33.925543 41.834485 116.906310 16.361515 -10.392907 -120.436780 36.197131 13.228399 -38.682257 -45.205829 -5.581814 -30.884524 -57.998203 -14.544948 -74.425231 7.204513 61.902551 -63.999316 -50.233695 -51.370840 -65.915663 47.196604 126.489557 -9.851931 116.323791 37.959767 238.064249 18.389424 47.003497 39.049018 19.977706 8.033079 45.143507 27.115149 7.028563 -140.816945 -9.748177 -33.421301 173.193189 -25.365950 20.964830 42.450746 -11.356947 -15.903663 -17.168106
-856.550891 99.323338 458.277543 -35.882809 33.589836 -88.960386 -0.139352 -19.804897 -43.419355 -18.410737 42.909987 147.006681 14.877177 42.653715 -9.958159 20.930568 -16.084988 -50.198267 26.177368 39.397358 118.062046 16.041766 -10.762586 -121.478343 35.265616 13.252961 -36.057989 -39.273188 0.785241 -29.092658 -66.342140 -21.443032 -83.378400 4.633289 65.449017 -61.094560 -46.959231 -47.546385 -61.536098 40.113192 126.777600 -8.333521 103.174789 44.550059 236.815718 21.295966 57.008126 35.378584 20.490376 4.199649 46.092982 23.302169 4.246741 -138.113132 -10.486152 -31.108254 174.422869 -20.255850 23.178775 43.010999 -10.661561 -13.326905 -14.909536
-853.923098 99.194287 459.401620 -31.244140 28.461270 -94.060407 -0.145540 -16.869261 -41.092781 -15.864813 37.828907 123.649537 6.702865 42.820577 -16.061632 19.808327 -15.871860 -47.721862 17.723077 41.288934 120.693063 15.034588 -10.573658 -121.845316 33.735851 15.233239 -32.829096 -34.422111 6.406821 -26.709825 -75.784227 -27.341047 -95.124673 3.549195 67.343493 -56.894079 -41.391001 -42.684591 -56.086245 33.809908 124.117200 -5.974031 90.573759 49.966949 234.053507 26.434026 68.093127 32.151340 19.104256 2.855703 46.432183 17.686235 0.441574 -136.950689 -10.245052 -28.332917 172.732711 -15.516260 27.561400 40.412628 -9.522165 -9.720934 -14.335396
-851.418826 99.151343 460.347131 -27.509149 21.623578 -100.235765 -1.259515 -15.710251 -38.775995 -14.452253 31.567253 104.773265 1.400731 43.209191 -18.084500 18.865071 -14.517383 -42.887782 7.975211 42.977405 124.619629 12.511512 -9.040099 -122.558633 30.584750 14.816881 -29.251245 -30.324384 12.486492 -23.670506 -86.045384 -30.148503 -108.844645 1.058423 69.296818 -54.438295 -38.567329 -41.657395 -54.439985 27.876353 119.846502 -4.341610 82.815777 55.127403 230.616747 29.472280 79.506776 30.477230 16.754323 1.889429 47.655739 11.315542 -3.879482 -133.899616 -10.776939 -27.884768 169.626505 -8.611079 31.499784 37.496554 -8.330994 -7.582457 -15.402326
-849.135882 99.398964 461.171601 -23.629962 15.332644 -108.839877 -1.943503 -16.687718 -33.783144 -13.214903 26.714427 88.264219 -3.129302 41.684293 -17.556865 17.511265 -13.628984 -37.774751 -2.248290 43.931015 131.896977 8.540777 -7.840162 -122.089809 27.411014 11.523444 -26.157531 -26.926498 20.703873 -21.856602 -99.153317 -29.230488 -123.742264 -1.089355 71.738973 -51.992506 -42.957010 -49.039396 -56.838399 23.704721 114.734638 -1.398831 78.605724 58.333012 227.071128 32.852609 91.149216 27.895401 12.950637 1.996114 49.052960 7.104867 -9.581616 -130.605156 -12.825610 -27.076569 165.308282 0.874384 35.951292 34.699263 -7.240865 -6.533907 -17.521390
-846.968753 100.061511 461.957619 -22.305158 10.297888 -113.981118 -3.494899 -14.535180 -28.211553 -9.238779 20.343918 72.551260 -6.948482 41.583097 -14.522111 15.951087 -13.030868 -32.574996 -10.639694 39.241250 135.312850 6.639729 -8.386339 -123.270530 24.919885 9.509286 -23.386629 -24.017575 29.489553 -19.231800 -110.788250 -22.884960 -138.072534 -2.321277 74.490992 -49.276547 -43.981719 -49.077375 -57.022090 21.793665 109.891583 2.061983 74.972295 62.283197 222.108012 38.397370 102.372870 27.199350 9.492096 -1.535456 53.116725 5.475795 -12.788846 -127.040398 -15.580102 -25.777241 163.476603 -5.836200 37.148105 36.361400 -6.695419 -6.934580 -18.266994
-847.099368 100.199717 461.528886 -20.796949 6.229228 -117.181239 -4.987255 -14.081465 -22.777262 -7.620162 16.309423 58.748766 -10.696478 41.412745 -12.447607 14.377596 -12.828506 -28.573693 -15.266207 35.845939 135.402913 8.961368 -9.677168 -125.457926 22.968661 11.528298 -20.791717 -20.670256 38.341578 -17.736850 -117.650008 -9.145265 -150.754542 -4.016867 77.699494 -47.624057 -46.925674 -49.898961 -61.319970 21.867925 106.035210 6.080021 71.866055 66.420871 217.125307 42.802784 112.737026 25.381249 5.336704 -3.595736 54.328810 4.388052 -16.453560 -122.491315 -20.134469 -25.146094 161.713389 -5.308637 35.560362 37.121911 -6.208601 -7.766693 -19.805257
-847.519213 100.562895 461.048005 -17.279578 2.947141 -119.669613 -6.769475 -15.032604 -16.941651 -3.253218 11.785371 44.656805 -14.504742 40.989714 -10.113001 13.224976 -12.286090 -25.856402 -17.668707 36.480781 135.865003 12.345184 -10.444774 -125.899852 20.093967 15.991327 -18.222596 -17.333067 47.181004 -12.955166 -121.603486 6.147923 -162.012715 -6.978030 81.542193 -47.596163 -47.476286 -47.754220 -64.088621 21.015285 101.123382 8.508979 68.759275 69.834497 215.126917 48.352709 122.461959 25.161191 1.658288 -6.875301 55.415842 6.258550 -21.058800 -118.243566 -21.820021 -25.742220 161.085340 -8.766891 32.171892 37.695688 -5.999978 -9.284578 -20.578740
